<svg width="73" height="76" viewBox="0 0 73 76" fill="none" xmlns="http://www.w3.org/2000/svg">
<path id="Vector" d="M64.5733 62.238C68.3193 57.5481 70.9245 51.9886 72.1685 46.0297C73.4125 40.0709 73.2587 33.8881 71.7202 28.0042C70.1816 22.1203 67.3035 16.7084 63.3294 12.2262C59.3552 7.74409 54.4019 4.32357 48.8883 2.25396C43.3747 0.184362 37.4632 -0.473434 31.6536 0.336214C25.844 1.14586 20.3073 3.39914 15.5118 6.90545C10.7162 10.4118 6.80299 15.068 4.10298 20.4803C1.40297 25.8925 -0.0043635 31.9017 1.01631e-05 37.9994C0.00205363 46.8648 3.00524 55.4463 8.48257 62.238L8.43039 62.2831C8.61303 62.5124 8.82176 62.7084 9.01014 62.9323C9.24496 63.2135 9.49649 63.4752 9.7407 63.7488C10.4713 64.572 11.2211 65.3643 12.0106 66.1102C12.2494 66.3358 12.497 66.5478 12.7412 66.7663C13.5761 67.5151 14.433 68.2244 15.3243 68.8869C15.4393 68.9716 15.5413 69.075 15.6572 69.16V69.1255C21.7681 73.5991 29.058 76 36.5303 76C44.0026 76 51.2925 73.5991 57.4034 69.1255V69.1594C57.5192 69.0745 57.6212 68.9711 57.7363 68.8864C58.6265 68.2238 59.4844 67.5146 60.3193 66.7657C60.5636 66.5486 60.8112 66.3352 61.0499 66.1097C61.8392 65.3635 62.5893 64.5712 63.3198 63.7482C63.5633 63.4752 63.814 63.213 64.0504 62.9318C64.238 62.7078 64.4475 62.5119 64.6302 62.2825L64.5733 62.238ZM36.5279 16.285C38.8501 16.285 41.1201 17.0014 43.0509 18.3435C44.9818 19.6857 46.4866 21.5933 47.3753 23.8251C48.264 26.057 48.4965 28.5129 48.0434 30.8823C47.5904 33.2516 46.4722 35.428 44.8301 37.1362C43.1881 38.8444 41.0961 40.0077 38.8185 40.479C36.541 40.9503 34.1802 40.7084 32.0348 39.7839C29.8894 38.8594 28.0557 37.2939 26.7655 35.2853C25.4754 33.2766 24.7868 30.9151 24.7868 28.4994C24.7868 25.2599 26.0238 22.1532 28.2257 19.8625C30.4276 17.5719 33.414 16.285 36.5279 16.285ZM15.6734 62.238C15.7184 58.674 17.1105 55.2718 19.5485 52.7675C21.9865 50.2632 25.2743 48.8582 28.7005 48.8565H44.3553C47.7815 48.8583 51.0693 50.2633 53.5072 52.7676C55.9452 55.2719 57.3374 58.6741 57.3825 62.238C51.6603 67.6022 44.2307 70.5708 36.5279 70.5708C28.8252 70.5708 21.3956 67.6022 15.6734 62.238Z" fill="#E3E3E3"/>
</svg>
